<?xml version="1.0" encoding="UTF-8" standalone="no"?>
<!-- Created with Inkscape (http://www.inkscape.org/) -->

<svg
   xmlns:dc="http://purl.org/dc/elements/1.1/"
   xmlns:cc="http://creativecommons.org/ns#"
   xmlns:rdf="http://www.w3.org/1999/02/22-rdf-syntax-ns#"
   xmlns:svg="http://www.w3.org/2000/svg"
   xmlns="http://www.w3.org/2000/svg"
   xmlns:xlink="http://www.w3.org/1999/xlink"
   xmlns:sodipodi="http://sodipodi.sourceforge.net/DTD/sodipodi-0.dtd"
   xmlns:inkscape="http://www.inkscape.org/namespaces/inkscape"
   width="210mm"
   height="297mm"
   viewBox="0 0 744.09448819 1052.3622047"
   id="svg2"
   version="1.1"
   inkscape:version="0.91 r13725"
   sodipodi:docname="netflix-categories-devil.svg"
   inkscape:export-filename="/Users/deekshitha/Dropbox/dkhcodes/netflix-categories-webextension/design/logo-48.png"
   inkscape:export-xdpi="10.72"
   inkscape:export-ydpi="10.72">
  <defs
     id="defs4">
    <linearGradient
       inkscape:collect="always"
       id="linearGradient4138">
      <stop
         style="stop-color:#d40000;stop-opacity:1;"
         offset="0"
         id="stop4140" />
      <stop
         style="stop-color:#ff0000;stop-opacity:1"
         offset="1"
         id="stop4142" />
    </linearGradient>
    <linearGradient
       inkscape:collect="always"
       xlink:href="#linearGradient4138"
       id="linearGradient4144"
       x1="181.42857"
       y1="543.79077"
       x2="554.28571"
       y2="171.64792"
       gradientUnits="userSpaceOnUse"
       gradientTransform="translate(15.152287,-20.390516)" />
    <filter
       inkscape:collect="always"
       style="color-interpolation-filters:sRGB"
       id="filter4381"
       x="-0.035723485"
       width="1.071447"
       y="-0.036280829"
       height="1.0725617">
      <feGaussianBlur
         inkscape:collect="always"
         stdDeviation="5.4324865"
         id="feGaussianBlur4383" />
    </filter>
  </defs>
  <sodipodi:namedview
     id="base"
     pagecolor="#ffffff"
     bordercolor="#666666"
     borderopacity="1.0"
     inkscape:pageopacity="0.0"
     inkscape:pageshadow="2"
     inkscape:zoom="0.98994949"
     inkscape:cx="361.18257"
     inkscape:cy="722.48556"
     inkscape:document-units="px"
     inkscape:current-layer="layer1"
     showgrid="false"
     inkscape:window-width="1440"
     inkscape:window-height="792"
     inkscape:window-x="1747"
     inkscape:window-y="54"
     inkscape:window-maximized="0" />
  <metadata
     id="metadata7">
    <rdf:RDF>
      <cc:Work
         rdf:about="">
        <dc:format>image/svg+xml</dc:format>
        <dc:type
           rdf:resource="http://purl.org/dc/dcmitype/StillImage" />
        <dc:title />
      </cc:Work>
    </rdf:RDF>
  </metadata>
  <g
     inkscape:label="Layer 1"
     inkscape:groupmode="layer"
     id="layer1">
    <rect
       style="opacity:1;fill:url(#linearGradient4144);fill-opacity:1"
       id="rect4136"
       width="400"
       height="400"
       x="185.15231"
       y="138.40028"
       ry="43.57143"
       inkscape:export-xdpi="115.2"
       inkscape:export-ydpi="115.2" />
    <path
       inkscape:connector-curvature="0"
       id="path4343"
       d="m 270.9453,160.99977 c -0.59206,3.84301 -2.98234,7.34955 -6.24806,8.72461 -3.70759,0.91732 -7.88125,0.66251 -11.07228,3.35937 -4.09242,3.88471 -5.67,9.97512 -6.78125,15.65625 -0.9433,6.30667 -2.19207,12.53625 -3.55274,18.73633 l 0.24805,0 c -0.22172,0.48715 -0.35157,1.02378 -0.35157,1.5957 l 0,291.36133 c -2.23989,5.23616 -4.54776,10.66528 -8.75782,14.65039 -7.43801,3.39383 -15.79328,3.29272 -23.62111,5.23828 -0.7764,0.17913 1.69172,-0.29381 2.30078,-0.375 11.8715,-1.94123 23.93894,-1.23964 35.91215,-1.51171 10.4219,-0.13953 20.86175,-0.2167 31.25589,-1.05079 l 29.23636,0 0,-263.3457 168.88884,263.3457 68.25983,0 c 8.61412,0.0909 17.26828,-0.27095 25.79691,1.45704 0.49155,0.0812 2.48403,0.55413 1.85742,0.375 -6.31762,-1.94556 -13.06145,-1.84446 -19.06447,-5.23828 -3.45768,-4.05532 -5.32801,-9.60679 -7.16603,-14.92774 l -0.29297,-7.98242 0,-157.14258 0,-73.26172 0,-50.19726 0.29297,-7.98438 c 1.83803,-5.32095 3.70833,-10.87241 7.16603,-14.92773 6.00304,-3.39383 12.74877,-3.29272 19.06642,-5.23828 0.62661,-0.17913 -1.36782,0.29381 -1.85937,0.375 -9.5812,1.94124 -19.32113,1.23964 -28.98442,1.51171 -3.59812,0.0597 -7.19769,0.11825 -10.79687,0.21875 l -34.39848,0 0,0.006 -0.48828,0 0,76.23633 0,1.72852 0,203.54492 L 330.4727,205.03688 c -1.15432,-5.39547 -2.21345,-10.81621 -3.03321,-16.29688 -1.11121,-5.68113 -2.6849,-11.77154 -6.77735,-15.65625 -3.19101,-2.69686 -7.36857,-2.44205 -11.07618,-3.35937 -3.26571,-1.37506 -5.65599,-4.8816 -6.24805,-8.72461 l 0.12695,1.4043 c 0.2858,5.6406 4.53539,10.58489 9.49806,11.17187 4.85567,1.72233 8.73078,7.22323 8.24415,13.10742 -0.10519,6.80987 -4.87217,13.57146 -11.08791,14.03516 -7.69606,0.83782 -15.29564,-1.61493 -22.97659,-1.47852 -7.6804,-0.13605 -15.28104,2.31628 -22.97658,1.47852 -6.21576,-0.4637 -10.98466,-7.22529 -11.08985,-14.03516 -0.4866,-5.88418 3.39043,-11.38509 8.2461,-13.10742 4.96266,-0.58698 9.2103,-5.53127 9.4961,-11.17187 l 0.12696,-1.4043 z m 2.08203,7.76172 0.0254,0.0586 -0.0254,-0.0586 z m 301.94171,13.60547 -0.0527,0.125 0.0527,-0.125 z m -0.0527,336.67383 0.0527,0.125 -0.0527,-0.125 z m -364.84998,1.10546 -0.0664,0.125 0.0664,-0.125 z"
       style="font-style:normal;font-weight:normal;font-size:474.91293335px;line-height:125%;font-family:sans-serif;letter-spacing:0px;word-spacing:0px;fill:#550000;fill-opacity:1;stroke:none;stroke-width:1px;stroke-linecap:butt;stroke-linejoin:miter;stroke-opacity:1;filter:url(#filter4381)" />
    <path
       style="font-style:normal;font-weight:normal;font-size:474.91293335px;line-height:125%;font-family:sans-serif;letter-spacing:0px;word-spacing:0px;fill:#ffffff;fill-opacity:1;stroke:none;stroke-width:1px;stroke-linecap:butt;stroke-linejoin:miter;stroke-opacity:1"
       d="m 260.94533,150.99975 c -0.59206,3.84301 -2.98234,7.34955 -6.24806,8.72461 -3.70759,0.91732 -7.88125,0.66251 -11.07228,3.35937 -4.09242,3.88471 -5.67,9.97512 -6.78125,15.65625 -0.9433,6.30667 -2.19206,12.53625 -3.55273,18.73633 l 0.24805,0 c -0.22172,0.48715 -0.35157,1.02378 -0.35157,1.5957 l 0,291.36133 c -2.23989,5.23616 -4.54776,10.66528 -8.75782,14.65039 -7.43801,3.39383 -15.79328,3.29272 -23.62111,5.23828 -0.7764,0.17913 1.69172,-0.29381 2.30078,-0.375 11.8715,-1.94123 23.93894,-1.23964 35.91214,-1.51171 10.4219,-0.13953 20.86175,-0.2167 31.25589,-1.05079 l 29.23635,0 0,-263.3457 168.8888,263.3457 68.25982,0 c 8.61411,0.0909 17.26827,-0.27095 25.7969,1.45704 0.49155,0.0812 2.48403,0.55413 1.85742,0.375 -6.31762,-1.94556 -13.06145,-1.84446 -19.06447,-5.23828 -3.45768,-4.05532 -5.328,-9.60679 -7.16602,-14.92774 l -0.29297,-7.98242 0,-157.14258 0,-73.26172 0,-50.19726 0.29297,-7.98438 c 1.83803,-5.32095 3.70832,-10.87241 7.16602,-14.92773 6.00304,-3.39383 12.74877,-3.29272 19.06642,-5.23828 0.62661,-0.17913 -1.36782,0.29381 -1.85937,0.375 -9.5812,1.94124 -19.32113,1.23964 -28.98441,1.51171 -3.59812,0.0597 -7.19769,0.11825 -10.79687,0.21875 l -34.39847,0 0,0.006 -0.48828,0 0,76.23633 0,1.72852 0,203.54492 -167.31849,-260.90053 c -1.15432,-5.39547 -2.21345,-10.81621 -3.03321,-16.29688 -1.11121,-5.68113 -2.6849,-11.77154 -6.77735,-15.65625 -3.19101,-2.69686 -7.36857,-2.44205 -11.07618,-3.35937 -3.26571,-1.37506 -5.65599,-4.8816 -6.24805,-8.72461 l 0.12695,1.4043 c 0.2858,5.6406 4.53539,10.58489 9.49806,11.17187 4.85567,1.72233 8.73078,7.22323 8.24415,13.10742 -0.10519,6.80987 -4.87217,13.57146 -11.08791,14.03516 -7.69606,0.83782 -15.29564,-1.61493 -22.97658,-1.47852 -7.6804,-0.13605 -15.28104,2.31628 -22.97658,1.47852 -6.21576,-0.4637 -10.98466,-7.22529 -11.08985,-14.03516 -0.4866,-5.88418 3.39043,-11.38509 8.2461,-13.10742 4.96266,-0.58698 9.2103,-5.53127 9.4961,-11.17187 l 0.12696,-1.4043 z m 2.08203,7.76172 0.0254,0.0586 -0.0254,-0.0586 z m 301.94164,13.60547 -0.0527,0.125 0.0527,-0.125 z m -0.0527,336.67383 0.0527,0.125 -0.0527,-0.125 z m -364.8499,1.10546 -0.0664,0.125 0.0664,-0.125 z"
       id="text4166"
       inkscape:connector-curvature="0" />
  </g>
</svg>
